<svg width="568" height="355" viewBox="0 0 568 355" fill="none" xmlns="http://www.w3.org/2000/svg">
<g clip-path="url(#clip0)">
<path d="M357.512 314.559H59.6367V315.676H357.512V314.559Z" fill="#3F3D56"/>
<path d="M217.606 160.763C217.606 160.763 211.284 185.903 223.927 181.434C236.571 176.964 228.985 159.646 228.985 159.646L217.606 160.763Z" fill="#FFB9B9"/>
<path d="M335.821 169.143C335.821 169.143 350.993 185.345 341.511 188.697C332.028 192.049 326.971 173.612 328.235 171.936C329.499 170.26 335.821 169.143 335.821 169.143Z" fill="#FFB9B9"/>
<path d="M299.788 54.6151C310.262 54.6151 318.753 47.1113 318.753 37.8549C318.753 28.5985 310.262 21.0947 299.788 21.0947C289.314 21.0947 280.823 28.5985 280.823 37.8549C280.823 47.1113 289.314 54.6151 299.788 54.6151Z" fill="#FFB9B9"/>
<path d="M285.564 44.2798L283.035 61.5985L303.896 68.3024L308.322 48.7489L285.564 44.2798Z" fill="#FFB9B9"/>
<path d="M297.259 61.3191C297.259 61.3191 286.542 56.6436 284.315 52.8359L279.558 56.8497C279.558 56.8497 245.421 54.0564 240.364 69.1405C235.307 84.2247 239.732 138.975 239.732 138.975C239.732 138.975 232.778 163.556 234.674 164.115C236.571 164.673 259.961 174.73 292.834 169.143C292.834 169.143 307.374 166.908 309.902 168.584C312.431 170.26 308.638 141.768 308.638 141.768C308.638 141.768 333.925 91.4874 329.499 85.342C325.074 79.1966 305.477 66.3471 305.477 66.3471L306.741 60.2017C306.741 60.2017 297.891 63.5538 297.259 61.3191Z" fill="#F2F2F2"/>
<path d="M245.421 65.23C245.421 65.23 234.042 70.258 232.146 78.0794C230.249 85.9009 212.549 150.707 214.445 154.618C216.342 158.528 215.71 163.556 215.71 163.556L232.146 161.88C232.146 161.88 228.985 157.97 230.882 156.294C232.778 154.618 234.675 149.031 233.41 146.796C232.146 144.561 230.882 148.472 237.835 141.209C244.789 133.947 260.593 67.4647 245.421 65.23Z" fill="#F2F2F2"/>
<path d="M325.706 84.2246C325.706 84.2246 331.08 84.5039 332.344 92.3254C333.608 100.147 335.821 148.472 335.821 148.472C335.821 148.472 344.039 164.115 340.878 166.349C337.718 168.584 339.614 171.936 339.614 171.936L328.235 174.729L303.581 140.65L325.706 84.2246Z" fill="#F2F2F2"/>
<path d="M236.571 161.88C236.571 161.88 232.778 162.439 232.778 174.73C232.778 187.02 225.824 225.01 230.249 231.156C234.674 237.301 235.307 292.609 235.307 292.609C235.307 292.609 247.318 297.079 257.432 282.553L258.697 274.732L261.225 236.742L271.34 189.255L285.248 241.77C285.248 241.77 283.351 304.9 290.305 304.9C297.259 304.9 310.534 299.872 310.534 299.872C310.534 299.872 313.695 294.285 312.431 291.492C311.166 288.699 309.902 289.257 311.166 287.023C312.431 284.788 314.327 226.686 314.327 226.686C314.327 226.686 311.799 166.908 308.638 165.232C305.477 163.556 236.571 161.88 236.571 161.88Z" fill="#2F2E41"/>
<path d="M236.571 290.375L226.456 299.872C226.456 299.872 208.123 314.956 223.927 315.515C239.732 316.074 248.582 306.576 248.582 305.459C248.582 304.342 249.214 300.431 253.639 300.431C258.064 300.431 268.811 290.933 266.283 287.023C263.754 283.112 256.168 281.436 256.168 281.436L236.571 290.375Z" fill="#2F2E41"/>
<path d="M290.937 302.666C290.937 302.666 283.351 316.074 287.777 318.867C292.202 321.661 293.466 322.778 293.466 322.778C293.466 322.778 297.259 322.219 296.627 327.247C295.995 332.275 319.385 335.069 320.649 331.158C321.914 327.247 321.281 319.426 318.753 317.191C316.224 314.957 308.638 299.314 308.638 299.314C308.638 299.314 300.42 290.934 290.937 302.666Z" fill="#2F2E41"/>
<path d="M318.928 24.397L322.5 23.9485C322.5 23.9485 317.527 15.8587 307.901 14.3897L311.28 12.3743C311.28 12.3743 305.408 8.66592 297.82 13.4325C293.831 15.9382 289.199 18.8959 285.792 22.6188L282.307 21.8661L282.979 25.0106L277.105 26.7414L282.471 27.3616C281.731 28.8443 281.246 30.4163 281.031 32.0257C280.823 33.637 281.332 35.2567 282.449 36.543C282.449 36.543 288.527 30.032 288.845 28.8807L288.049 31.7591C288.049 31.7591 292.02 29.8714 292.497 28.1444L293.715 30.5426L295.478 27.5681L305.549 33.0984L304.49 30.1245L311.055 32.4576L309.268 28.7163C309.268 28.7163 315.925 34.1194 315.346 37.3495C314.766 40.5796 316.188 44.066 316.188 44.066C316.188 44.066 326.313 30.5674 318.928 24.397Z" fill="#2F2E41"/>
<path d="M494 214.289H392.763V215.36H494V214.289Z" fill="#3F3D56"/>
<path d="M115.586 296.778H91.1831V318.344H115.586V296.778Z" fill="#CFCCE0"/>
<path d="M112.375 315.506H86.688V292.805H112.375V315.506ZM87.9724 314.371H111.091V293.94H87.9724L87.9724 314.371Z" fill="#3F3D56"/>
<path d="M142.285 108.341L126.841 113.62L132.607 126.795L148.051 121.517L142.285 108.341Z" fill="#F2F2F2"/>
<path d="M145.26 120.478L129.004 126.034L122.934 112.165L139.19 106.609L145.26 120.478ZM129.513 125.063L144.143 120.062L138.681 107.58L124.05 112.581L129.513 125.063Z" fill="#3F3D56"/>
<path d="M426.059 268.959L420.675 255.121L405.559 259.714L410.942 273.552L426.059 268.959Z" fill="#F2F2F2"/>
<path d="M412.223 271.127L406.556 256.561L422.468 251.726L428.135 266.293L412.223 271.127ZM407.635 257.047L412.735 270.157L427.056 265.806L421.956 252.696L407.635 257.047Z" fill="#3F3D56"/>
<path d="M81.7797 200.169C90.834 200.341 98.0366 206.139 98.0366 206.139C98.0366 206.139 90.5593 211.66 81.505 211.488C72.4507 211.317 65.248 205.518 65.248 205.518C65.248 205.518 72.7254 199.998 81.7797 200.169Z" fill="#6C63FF"/>
<path d="M36.2591 172.855C44.4393 176.29 53.8193 173.961 53.8193 173.961C53.8193 173.961 49.9367 166.063 41.7565 162.629C33.5763 159.195 24.1963 161.524 24.1963 161.524C24.1963 161.524 28.0789 169.421 36.2591 172.855Z" fill="#6C63FF"/>
<path d="M37.0903 169.442C46.1091 168.714 54.0032 173.761 54.0032 173.761C54.0032 173.761 47.275 179.989 38.2562 180.717C29.2374 181.445 21.3433 176.399 21.3433 176.399C21.3433 176.399 28.0715 170.171 37.0903 169.442Z" fill="#3F3D56"/>
<path d="M70.1506 170.822C69.2862 178.789 74.9616 185.788 74.9616 185.788C74.9616 185.788 82.0387 179.87 82.9031 171.903C83.7675 163.936 78.0921 156.937 78.0921 156.937C78.0921 156.937 71.0151 162.855 70.1506 170.822Z" fill="#3F3D56"/>
<path d="M112.625 219.684C107.894 226.509 109.522 234.998 109.522 234.998C109.522 234.998 118.819 232.422 123.549 225.597C128.28 218.772 126.652 210.283 126.652 210.283C126.652 210.283 117.355 212.859 112.625 219.684Z" fill="#3F3D56"/>
<path d="M98.9012 293.888L99.5906 293.477C97.1607 290.36 95.8339 286.676 95.7789 282.892C95.7981 277.356 98.8748 272.236 101.85 267.285C102.403 266.366 102.953 265.449 103.483 264.534C105.705 260.801 107.477 256.871 108.767 252.809C113.383 237.652 108.839 219.77 96.6124 204.973C86.9135 193.235 72.4553 182.971 52.4121 173.594L52.0229 174.244C71.952 183.568 86.3176 193.761 95.9405 205.407C108.02 220.025 112.514 237.674 107.964 252.618C106.688 256.63 104.938 260.512 102.742 264.199C102.214 265.111 101.666 266.024 101.115 266.94C98.0926 271.97 94.9668 277.172 94.9469 282.89C95.0019 286.821 96.3783 290.65 98.9012 293.888Z" fill="#3F3D56"/>
<path d="M12.9038 174.56C17.2689 174.56 20.8075 171.433 20.8075 167.575C20.8075 163.718 17.2689 160.591 12.9038 160.591C8.53864 160.591 5 163.718 5 167.575C5 171.433 8.53864 174.56 12.9038 174.56Z" fill="#3F3D56"/>
<path d="M443.18 208.834L341.442 176.542L359.606 131.85L422.952 118.121L461.343 164.142L443.18 208.834Z" fill="#2F2E41"/>
<path d="M430.855 199.972L354.827 174.359C374.564 150.995 383.39 134.514 383.397 108.58L459.425 134.192C441.762 156.366 434.376 173.034 430.855 199.972Z" fill="#F2F2F2"/>
<path d="M436.839 137.697L397.451 124.428L396.752 126.047L436.141 139.316L436.839 137.697Z" fill="#3F3D56"/>
<path d="M434.046 144.173L394.658 130.904L393.959 132.523L433.348 145.792L434.046 144.173Z" fill="#3F3D56"/>
<path d="M431.253 150.65L391.864 137.381L391.166 139L430.554 152.269L431.253 150.65Z" fill="#3F3D56"/>
<path d="M428.459 157.126L389.071 143.857L388.372 145.476L427.761 158.745L428.459 157.126Z" fill="#3F3D56"/>
<path d="M425.666 163.602L386.277 150.333L385.579 151.952L424.967 165.221L425.666 163.602Z" fill="#3F3D56"/>
<path d="M422.872 170.078L383.484 156.809L382.786 158.428L422.174 171.697L422.872 170.078Z" fill="#3F3D56"/>
<path d="M420.079 176.554L380.69 163.285L379.992 164.904L419.38 178.173L420.079 176.554Z" fill="#3F3D56"/>
<path d="M417.285 183.03L377.897 169.761L377.199 171.38L416.587 184.649L417.285 183.03Z" fill="#3F3D56"/>
<path d="M440.83 214.618L339.092 182.326L359.606 131.85L402.569 167.45L461.344 164.142L440.83 214.618Z" fill="#3F3D56"/>
<path d="M389.136 198.713L338.407 182.611L350.768 152.196L351.776 152.516L339.778 182.04L389.498 197.821L389.136 198.713Z" fill="#6C63FF"/>
<path d="M371.103 166.367L356.229 161.646L354.093 166.903L368.967 171.624L371.103 166.367Z" fill="#6C63FF"/>
<path d="M202.931 314.957L123.305 314.919L123.93 275.414L163.502 291.132L203.556 276.398L202.931 314.957Z" fill="#3F3D56"/>
<path d="M141.286 297.031L129.645 296.887L129.579 301.003L141.221 301.147L141.286 297.031Z" fill="#6C63FF"/>
<path d="M203.823 276.344L163.575 294.477L123.721 276.344V275.297H203.823V276.344Z" fill="#6C63FF"/>
<path d="M435.201 126.817C436.152 124.611 431.322 120.935 424.411 118.607C417.5 116.279 411.127 116.18 410.175 118.386C409.224 120.592 414.055 124.267 420.965 126.595C427.876 128.923 434.25 129.023 435.201 126.817Z" fill="#6C63FF"/>
<path d="M446.137 59.5456C443.585 58.8442 440.901 58.594 438.239 58.8092C435.577 59.0244 432.989 59.7008 430.623 60.7999C428.257 61.899 426.159 63.3991 424.449 65.2147C422.739 67.0303 421.451 69.1257 420.657 71.3814C417.319 80.8679 426.416 115.596 426.416 115.596C426.416 115.596 456.192 91.55 459.53 82.0635C461.133 77.5079 460.622 72.5762 458.111 68.3533C455.599 64.1304 451.292 60.9621 446.137 59.5456ZM437.231 84.8589C435.41 84.3585 433.798 83.3922 432.598 82.0821C431.399 80.772 430.666 79.177 430.492 77.4987C430.318 75.8205 430.712 74.1345 431.622 72.6538C432.533 71.1731 433.92 69.9643 435.608 69.1802C437.296 68.3961 439.209 68.072 441.105 68.2488C443.002 68.4256 444.796 69.0955 446.262 70.1736C447.727 71.2517 448.798 72.6897 449.339 74.3057C449.88 75.9217 449.866 77.6432 449.3 79.2524C448.924 80.3209 448.314 81.3135 447.504 82.1735C446.694 83.0335 445.7 83.7441 444.579 84.2647C443.459 84.7853 442.233 85.1058 440.972 85.2077C439.711 85.3096 438.44 85.1911 437.231 84.8589Z" fill="#6C63FF"/>
</g>
<path d="M103.858 31H2.6416C1.18269 31 0 32.1827 0 33.6416C0 35.1005 1.18268 36.2832 2.6416 36.2832H103.858C105.317 36.2832 106.5 35.1005 106.5 33.6416C106.5 32.1827 105.317 31 103.858 31Z" fill="#F2F2F2"/>
<path d="M157.858 0H56.6416C55.1827 0 54 1.18269 54 2.64161C54 4.10052 55.1827 5.28321 56.6416 5.28321H157.858C159.317 5.28321 160.5 4.10052 160.5 2.64161C160.5 1.18269 159.317 0 157.858 0Z" fill="#F2F2F2"/>
<path d="M109.858 312H8.64162C7.18269 312 6 313.183 6 314.642C6 316.101 7.18269 317.283 8.64162 317.283H109.858C111.317 317.283 112.5 316.101 112.5 314.642C112.5 313.183 111.317 312 109.858 312Z" fill="#F2F2F2"/>
<path d="M129.858 11H28.6416C27.1827 11 26 12.1827 26 13.6416C26 15.1005 27.1827 16.2832 28.6416 16.2832H129.858C131.317 16.2832 132.5 15.1005 132.5 13.6416C132.5 12.1827 131.317 11 129.858 11Z" fill="#302CAF"/>
<path d="M139.858 332H38.6416C37.1827 332 36 333.183 36 334.642C36 336.1 37.1827 337.283 38.6416 337.283H139.858C141.317 337.283 142.5 336.1 142.5 334.642C142.5 333.183 141.317 332 139.858 332Z" fill="#302CAF"/>
<path d="M156.858 349H55.6416C54.1827 349 53 350.183 53 351.642C53 353.101 54.1827 354.283 55.6416 354.283H156.858C158.317 354.283 159.5 353.101 159.5 351.642C159.5 350.183 158.317 349 156.858 349Z" fill="#F2F2F2"/>
<defs>
<clipPath id="clip0">
<rect width="489" height="322" fill="white" transform="translate(5 11)"/>
</clipPath>
</defs>
</svg>
