<svg width="106" height="40" viewBox="0 0 106 40" fill="none" xmlns="http://www.w3.org/2000/svg">
<path d="M35.1223 2.5199L34.9716 1.58494C34.8864 1.05605 34.5196 0.642321 34.0509 0.546107L33.2221 0.37618C29.6988 -0.346352 26.0521 -0.0198054 22.6765 1.32106C18.2846 3.06557 15.404 5.93626 12.8663 9.49368L11.526 8.97471C9.3517 8.13241 6.94433 8.69332 5.24336 10.438L1.01037 14.7796C-1.03286 16.8751 0.223469 20.7213 2.98447 20.8183L6.72873 20.95C6.53587 22.2617 6.90437 23.6298 7.76911 24.6053L13.6465 31.2363C14.482 32.179 15.6815 32.636 16.8866 32.4104L17.0033 36.6345C17.0895 39.7583 20.5045 41.1593 22.3558 38.8616L26.204 34.0859C27.7504 32.1669 28.2474 29.4509 27.5011 26.9978L27.041 25.4856C30.1116 22.6973 32.6999 19.497 34.2849 14.4177C35.4733 10.6091 35.7629 6.49492 35.1223 2.5199ZM2.54899 16.6891L6.78199 12.3475C7.86526 11.2366 9.39852 10.8794 10.7832 11.4156L11.4014 11.655C10.0663 13.7285 8.81042 15.9862 7.6844 18.4015L3.0556 18.2387C2.34397 18.2137 2.02186 17.2297 2.54899 16.6891ZM25.3374 27.8356C25.8127 29.398 25.4962 31.1276 24.5113 32.3499L20.663 37.1255C20.1842 37.72 19.3117 37.3574 19.2896 36.5541L19.1453 31.3319C21.2266 30.0969 23.2259 28.6949 25.1252 27.1383L25.3374 27.8356ZM26.7217 22.4299C23.7417 25.3137 20.4394 27.7672 16.9063 29.7221C16.3578 30.0256 15.6977 29.9007 15.264 29.4113C15.2712 29.4113 15.3173 29.4716 9.38651 22.7803C8.95282 22.291 8.84216 21.5464 9.11115 20.9275C9.40417 20.2534 9.7109 19.5874 10.0289 18.9286L16.2333 25.9284C16.68 26.4323 17.404 26.4323 17.8507 25.9284C18.2974 25.4245 18.2974 24.6074 17.8507 24.1035L11.2133 16.6152C12.5485 14.1553 14.0191 11.8919 15.6686 9.73038C19.8076 4.32047 26.3162 1.58543 32.8626 2.92541C34.0181 10.1102 31.7936 17.508 26.7217 22.4299ZM20.2207 9.3223C17.1209 12.8193 19.3354 18.8147 23.7068 18.8147C28.0741 18.8147 30.2962 12.8233 27.1928 9.3223C25.2705 7.15358 22.143 7.15358 20.2207 9.3223ZM25.5753 15.3634C24.5449 16.5257 22.8685 16.5257 21.8382 15.3634C20.8079 14.201 20.8079 12.3095 21.8382 11.1471C22.8686 9.98475 24.5449 9.98475 25.5753 11.1471C26.6056 12.3095 26.6056 14.201 25.5753 15.3634ZM1.75637 30.1792C1.30967 29.6753 1.30967 28.8582 1.75637 28.3544L3.23745 26.6835C3.68408 26.1796 4.40829 26.1796 4.85492 26.6835C5.30162 27.1874 5.30162 28.0044 4.85492 28.5083L3.37384 30.1793C2.92714 30.6832 2.20301 30.6832 1.75637 30.1792ZM11.8614 34.5883C12.3081 35.0922 12.3081 35.9092 11.8614 36.4131L10.3804 38.0841C10.157 38.336 9.86438 38.4621 9.57165 38.4621C8.56194 38.4621 8.04025 37.0745 8.76288 36.2593L10.2439 34.5883C10.6907 34.0844 11.4148 34.0842 11.8614 34.5883ZM9.36313 31.2626L4.33416 36.9364C3.88738 37.4403 3.16332 37.4403 2.71669 36.9364C2.26999 36.4325 2.26999 35.6154 2.71669 35.1115L7.74566 29.4377C8.19237 28.9338 8.9165 28.9338 9.36313 29.4377C9.80984 29.9417 9.80984 30.7587 9.36313 31.2626Z" fill="url(#paint0_linear)"/>
<path d="M61.85 15.25H53.75V34H49.4V15.25H41.3V13H61.85V15.25ZM74.143 32.35C75.503 32.35 76.803 32.12 78.043 31.66C79.303 31.18 80.503 30.41 81.643 29.35L83.143 31.15C82.003 32.21 80.623 33.05 79.003 33.67C77.383 34.29 75.663 34.6 73.843 34.6C71.963 34.6 70.263 34.36 68.743 33.88C67.243 33.4 65.953 32.69 64.873 31.75C63.813 30.81 62.993 29.65 62.413 28.27C61.833 26.89 61.543 25.3 61.543 23.5C61.543 21.7 61.823 20.11 62.383 18.73C62.963 17.35 63.773 16.19 64.813 15.25C65.873 14.31 67.143 13.6 68.623 13.12C70.103 12.64 71.743 12.4 73.543 12.4C75.363 12.4 77.083 12.71 78.703 13.33C80.323 13.95 81.703 14.79 82.843 15.85L81.343 17.65C80.203 16.59 79.003 15.83 77.743 15.37C76.503 14.89 75.203 14.65 73.843 14.65C72.763 14.65 71.753 14.83 70.813 15.19C69.873 15.53 69.063 16.06 68.383 16.78C67.703 17.5 67.163 18.42 66.763 19.54C66.383 20.64 66.193 21.96 66.193 23.5C66.193 25.04 66.383 26.37 66.763 27.49C67.163 28.59 67.713 29.5 68.413 30.22C69.133 30.94 69.973 31.48 70.933 31.84C71.913 32.18 72.983 32.35 74.143 32.35ZM105.344 28.45C105.344 29.31 105.164 30.12 104.804 30.88C104.444 31.62 103.854 32.27 103.034 32.83C102.234 33.37 101.184 33.8 99.8841 34.12C98.6041 34.44 97.0241 34.6 95.1441 34.6C94.0841 34.6 93.0441 34.52 92.0241 34.36C91.0241 34.2 90.0641 33.97 89.1441 33.67C88.2441 33.37 87.4041 33.01 86.6241 32.59C85.8641 32.15 85.2041 31.67 84.6441 31.15L86.1441 29.35C87.2841 30.33 88.6141 31.08 90.1341 31.6C91.6541 32.1 93.3241 32.35 95.1441 32.35C97.1641 32.35 98.5941 32.07 99.4341 31.51C100.274 30.95 100.694 30.18 100.694 29.2C100.694 28.44 100.364 27.8 99.7041 27.28C99.0441 26.76 97.9241 26.25 96.3441 25.75L90.6441 23.95C88.7641 23.35 87.3441 22.59 86.3841 21.67C85.4241 20.73 84.9441 19.54 84.9441 18.1C84.9441 17.36 85.1141 16.65 85.4541 15.97C85.8141 15.27 86.3641 14.66 87.1041 14.14C87.8441 13.6 88.7841 13.18 89.9241 12.88C91.0841 12.56 92.4741 12.4 94.0941 12.4C95.0741 12.4 96.0441 12.48 97.0041 12.64C97.9841 12.8 98.9141 13.03 99.7941 13.33C100.694 13.63 101.524 14 102.284 14.44C103.064 14.86 103.734 15.33 104.294 15.85L102.794 17.65C101.654 16.67 100.374 15.93 98.9541 15.43C97.5341 14.91 95.9141 14.65 94.0941 14.65C92.5941 14.65 91.4641 14.91 90.7041 15.43C89.9641 15.95 89.5941 16.59 89.5941 17.35C89.5941 17.77 89.6641 18.14 89.8041 18.46C89.9441 18.76 90.1741 19.05 90.4941 19.33C90.8341 19.59 91.2741 19.84 91.8141 20.08C92.3541 20.3 93.0241 20.54 93.8241 20.8L99.4941 22.6C101.314 23.18 102.744 23.94 103.784 24.88C104.824 25.82 105.344 27.01 105.344 28.45Z" fill="url(#paint1_linear)"/>
<defs>
<linearGradient id="paint0_linear" x1="17.7272" y1="0.00152588" x2="17.7272" y2="40.0002" gradientUnits="userSpaceOnUse">
<stop stop-color="#5500C0"/>
<stop offset="1" stop-color="#5500C0"/>
</linearGradient>
<linearGradient id="paint1_linear" x1="130.722" y1="11.4091" x2="32.4175" y2="45.8967" gradientUnits="userSpaceOnUse">
<stop stop-color="#5500C0"/>
<stop offset="1" stop-color="#5500C0"/>
</linearGradient>
</defs>
</svg>
