<svg width="498" height="358" viewBox="0 0 498 358" fill="none" xmlns="http://www.w3.org/2000/svg">
<path d="M494.78 33.6804H393.563C392.105 33.6804 390.922 34.8631 390.922 36.322C390.922 37.7809 392.105 38.9636 393.563 38.9636H494.78C496.239 38.9636 497.422 37.7809 497.422 36.322C497.422 34.8631 496.239 33.6804 494.78 33.6804Z" fill="#F2F2F2"/>
<path d="M431.614 0H330.397C328.939 0 327.756 1.18269 327.756 2.64161C327.756 4.10052 328.939 5.28321 330.397 5.28321H431.614C433.073 5.28321 434.256 4.10052 434.256 2.64161C434.256 1.18269 433.073 0 431.614 0Z" fill="#F2F2F2"/>
<path d="M477.152 314.351H375.936C374.477 314.351 373.294 315.534 373.294 316.992C373.294 318.451 374.477 319.634 375.936 319.634H477.152C478.611 319.634 479.794 318.451 479.794 316.992C479.794 315.534 478.611 314.351 477.152 314.351Z" fill="#F2F2F2"/>
<path d="M471.276 13.208H370.06C368.601 13.208 367.418 14.3907 367.418 15.8496C367.418 17.3085 368.601 18.4912 370.06 18.4912H471.276C472.735 18.4912 473.918 17.3085 473.918 15.8496C473.918 14.3907 472.735 13.208 471.276 13.208Z" fill="#302CAF"/>
<path d="M450.711 333.502H349.494C348.035 333.502 346.853 334.685 346.853 336.144C346.853 337.603 348.035 338.786 349.494 338.786H450.711C452.17 338.786 453.353 337.603 453.353 336.144C453.353 334.685 452.17 333.502 450.711 333.502Z" fill="#302CAF"/>
<path d="M421.332 352.654H320.115C318.656 352.654 317.473 353.837 317.473 355.296C317.473 356.755 318.656 357.937 320.115 357.937H421.332C422.79 357.937 423.973 356.755 423.973 355.296C423.973 353.837 422.79 352.654 421.332 352.654Z" fill="#F2F2F2"/>
<g clip-path="url(#clip0)">
<path opacity="0.1" d="M424 206.781C424.005 215.148 423.15 223.475 421.461 231.528C419.828 239.29 417.426 246.721 414.319 253.62C414.319 278.617 401.784 300.22 383.59 310.498C375.987 314.75 367.832 316.921 359.599 316.885H80.4893C65.5714 316.885 51.747 311.466 40.4094 302.236C37.1647 299.607 34.0867 296.621 31.2067 293.31C18.6053 278.731 10.7924 258.585 10.7924 236.332C3.72011 221.672 -0.0299442 204.558 -0.000314044 187.078C-0.000314044 150.476 16.0813 119.004 39.1196 105.108C42.1789 103.264 45.34 101.743 48.5744 100.558C49.7184 100.139 50.8747 99.7632 52.0435 99.4306C55.159 98.5374 58.3191 97.9538 61.4982 97.6843C62.6472 97.5879 63.8023 97.533 64.9636 97.5197H65.6011C66.8835 97.5197 68.1547 97.5795 69.4186 97.6793L69.8337 96.7314C70.3427 95.5872 70.864 94.4546 71.3977 93.3336C72.3614 91.2914 73.3719 89.279 74.4295 87.2966C75.5364 85.2044 76.6915 83.1455 77.8949 81.1198L78.2025 80.6209C78.8844 79.4767 79.5812 78.3458 80.2928 77.2282C82.5166 73.739 84.8639 70.3546 87.3348 67.0749C114.061 31.8105 155.931 9.10913 203.001 9.10913C239.626 9.10913 273.105 22.8547 298.749 45.566C308.464 38.1652 319.438 34.2818 330.601 34.2952C366.826 34.2952 396.202 74.3942 396.202 123.858C396.197 126.988 396.073 130.115 395.832 133.228C404.564 141.549 411.681 152.576 416.584 165.377C421.486 178.178 424.03 192.378 424 206.781Z" fill="#F2F2F2"/>
<path opacity="0.2" d="M87.3428 67.0523V77.2055H80.3008C82.5073 73.7197 84.8546 70.3353 87.3428 67.0523Z" fill="#F2F2F2"/>
<path opacity="0.2" d="M100.266 64.4778H90.8115V77.2056H100.266V64.4778Z" fill="#F2F2F2"/>
<path opacity="0.2" d="M113.187 64.4778H103.732V77.2056H113.187V64.4778Z" fill="#F2F2F2"/>
<path opacity="0.2" d="M126.111 64.4778H116.656V77.2056H126.111V64.4778Z" fill="#F2F2F2"/>
<path opacity="0.2" d="M139.03 64.4778H129.576V77.2056H139.03V64.4778Z" fill="#F2F2F2"/>
<path opacity="0.2" d="M151.954 64.4778H142.5V77.2056H151.954V64.4778Z" fill="#F2F2F2"/>
<path d="M164.878 64.4778H155.423V77.2056H164.878V64.4778Z" fill="#F2F2F2"/>
<path opacity="0.2" d="M177.799 64.4778H168.344V77.2056H177.799V64.4778Z" fill="#F2F2F2"/>
<path opacity="0.2" d="M190.722 64.4778H181.268V77.2056H190.722V64.4778Z" fill="#F2F2F2"/>
<path opacity="0.2" d="M203.642 64.4778H194.188V77.2056H203.642V64.4778Z" fill="#F2F2F2"/>
<path d="M216.566 64.4778H207.111V77.2056H216.566V64.4778Z" fill="#F2F2F2"/>
<path opacity="0.2" d="M229.49 64.4778H220.035V77.2056H229.49V64.4778Z" fill="#F2F2F2"/>
<path opacity="0.2" d="M242.41 64.4778H232.956V77.2056H242.41V64.4778Z" fill="#F2F2F2"/>
<path opacity="0.2" d="M255.334 64.4778H245.879V77.2056H255.334V64.4778Z" fill="#F2F2F2"/>
<path opacity="0.2" d="M268.258 64.4778H258.803V77.2056H268.258V64.4778Z" fill="#F2F2F2"/>
<path opacity="0.2" d="M281.178 64.4778H271.723V77.2056H281.178V64.4778Z" fill="#F2F2F2"/>
<path opacity="0.2" d="M294.102 64.4778H284.647V77.2056H294.102V64.4778Z" fill="#F2F2F2"/>
<path d="M307.022 64.4778H297.567V77.2056H307.022V64.4778Z" fill="#F2F2F2"/>
<path d="M319.946 64.4778H310.491V77.2056H319.946V64.4778Z" fill="#F2F2F2"/>
<path opacity="0.2" d="M332.87 64.4778H323.415V77.2056H332.87V64.4778Z" fill="#F2F2F2"/>
<path opacity="0.2" d="M345.79 64.4778H336.335V77.2056H345.79V64.4778Z" fill="#F2F2F2"/>
<path d="M358.714 64.4778H349.259V77.2056H358.714V64.4778Z" fill="#F2F2F2"/>
<path d="M371.634 64.4778H362.179V77.2056H371.634V64.4778Z" fill="#F2F2F2"/>
<path d="M74.4224 87.289V93.3261H71.3906C72.3543 91.2705 73.3648 89.2581 74.4224 87.289Z" fill="#F2F2F2"/>
<path opacity="0.2" d="M87.3424 80.5983H77.8877V93.326H87.3424V80.5983Z" fill="#F2F2F2"/>
<path d="M100.266 80.5983H90.8115V93.326H100.266V80.5983Z" fill="#F2F2F2"/>
<path opacity="0.2" d="M113.187 80.5983H103.732V93.326H113.187V80.5983Z" fill="#F2F2F2"/>
<path opacity="0.7" d="M126.111 80.5983H116.656V93.326H126.111V80.5983Z" fill="#F2F2F2"/>
<path opacity="0.2" d="M139.03 80.5983H129.576V93.326H139.03V80.5983Z" fill="#F2F2F2"/>
<path opacity="0.4" d="M151.954 80.5983H142.5V93.326H151.954V80.5983Z" fill="#F2F2F2"/>
<path d="M164.878 80.5983H155.423V93.326H164.878V80.5983Z" fill="#F2F2F2"/>
<path opacity="0.4" d="M177.799 80.5983H168.344V93.326H177.799V80.5983Z" fill="#F2F2F2"/>
<path opacity="0.2" d="M190.722 80.5983H181.268V93.326H190.722V80.5983Z" fill="#F2F2F2"/>
<path opacity="0.4" d="M203.642 80.5983H194.188V93.326H203.642V80.5983Z" fill="#F2F2F2"/>
<path d="M216.566 80.5983H207.111V93.326H216.566V80.5983Z" fill="#F2F2F2"/>
<path opacity="0.4" d="M229.49 80.5983H220.035V93.326H229.49V80.5983Z" fill="#F2F2F2"/>
<path opacity="0.4" d="M242.41 80.5983H232.956V93.326H242.41V80.5983Z" fill="#F2F2F2"/>
<path opacity="0.2" d="M255.334 80.5983H245.879V93.326H255.334V80.5983Z" fill="#F2F2F2"/>
<path opacity="0.4" d="M268.258 80.5983H258.803V93.326H268.258V80.5983Z" fill="#F2F2F2"/>
<path opacity="0.4" d="M281.178 80.5983H271.723V93.326H281.178V80.5983Z" fill="#F2F2F2"/>
<path opacity="0.2" d="M294.102 80.5983H284.647V93.326H294.102V80.5983Z" fill="#F2F2F2"/>
<path opacity="0.2" d="M307.022 80.5983H297.567V93.326H307.022V80.5983Z" fill="#F2F2F2"/>
<path opacity="0.4" d="M319.946 80.5983H310.491V93.326H319.946V80.5983Z" fill="#F2F2F2"/>
<path opacity="0.2" d="M332.87 80.5983H323.415V93.326H332.87V80.5983Z" fill="#F2F2F2"/>
<path d="M345.79 80.5983H336.335V93.326H345.79V80.5983Z" fill="#F2F2F2"/>
<path d="M358.714 80.5983H349.259V93.326H358.714V80.5983Z" fill="#F2F2F2"/>
<path d="M371.634 80.5983H362.179V93.326H371.634V80.5983Z" fill="#F2F2F2"/>
<path opacity="0.2" d="M48.5749 100.556V109.451H39.1201V105.106C42.1794 103.262 45.3405 101.74 48.5749 100.556Z" fill="#F2F2F2"/>
<path opacity="0.2" d="M61.4987 97.6817V109.451H52.0439V99.428L61.4987 97.6817Z" fill="#F2F2F2"/>
<path d="M74.4186 96.7238H64.9639V109.451H74.4186V96.7238Z" fill="#F2F2F2"/>
<path opacity="0.7" d="M87.3424 96.7238H77.8877V109.451H87.3424V96.7238Z" fill="#F2F2F2"/>
<path d="M100.266 96.7238H90.8115V109.451H100.266V96.7238Z" fill="#F2F2F2"/>
<path opacity="0.7" d="M113.187 96.7238H103.732V109.451H113.187V96.7238Z" fill="#F2F2F2"/>
<path opacity="0.7" d="M126.111 96.7238H116.656V109.451H126.111V96.7238Z" fill="#F2F2F2"/>
<path opacity="0.2" d="M139.03 96.7238H129.576V109.451H139.03V96.7238Z" fill="#F2F2F2"/>
<path opacity="0.4" d="M151.954 96.7238H142.5V109.451H151.954V96.7238Z" fill="#F2F2F2"/>
<path opacity="0.4" d="M164.878 96.7238H155.423V109.451H164.878V96.7238Z" fill="#F2F2F2"/>
<path d="M177.799 96.7238H168.344V109.451H177.799V96.7238Z" fill="#F2F2F2"/>
<path opacity="0.2" d="M190.722 96.7238H181.268V109.451H190.722V96.7238Z" fill="#F2F2F2"/>
<path opacity="0.4" d="M203.642 96.7238H194.188V109.451H203.642V96.7238Z" fill="#F2F2F2"/>
<path d="M216.566 96.7238H207.111V109.451H216.566V96.7238Z" fill="#F2F2F2"/>
<path opacity="0.2" d="M229.49 96.7238H220.035V109.451H229.49V96.7238Z" fill="#F2F2F2"/>
<path opacity="0.4" d="M242.41 96.7238H232.956V109.451H242.41V96.7238Z" fill="#F2F2F2"/>
<path opacity="0.2" d="M255.334 96.7238H245.879V109.451H255.334V96.7238Z" fill="#F2F2F2"/>
<path d="M268.258 96.7238H258.803V109.451H268.258V96.7238Z" fill="#F2F2F2"/>
<path opacity="0.2" d="M281.178 96.7238H271.723V109.451H281.178V96.7238Z" fill="#F2F2F2"/>
<path opacity="0.7" d="M294.102 96.7238H284.647V109.451H294.102V96.7238Z" fill="#F2F2F2"/>
<path opacity="0.7" d="M307.022 96.7238H297.567V109.451H307.022V96.7238Z" fill="#F2F2F2"/>
<path opacity="0.4" d="M319.946 96.7238H310.491V109.451H319.946V96.7238Z" fill="#F2F2F2"/>
<path opacity="0.2" d="M332.87 96.7238H323.415V109.451H332.87V96.7238Z" fill="#F2F2F2"/>
<path d="M345.79 96.7238H336.335V109.451H345.79V96.7238Z" fill="#F2F2F2"/>
<path d="M358.714 96.7238H349.259V109.451H358.714V96.7238Z" fill="#F2F2F2"/>
<path d="M371.634 96.7238H362.179V109.451H371.634V96.7238Z" fill="#F2F2F2"/>
<path opacity="0.2" d="M48.5749 112.844H39.1201V125.572H48.5749V112.844Z" fill="#F2F2F2"/>
<path opacity="0.2" d="M61.4987 112.844H52.0439V125.572H61.4987V112.844Z" fill="#F2F2F2"/>
<path opacity="0.2" d="M74.4186 112.844H64.9639V125.572H74.4186V112.844Z" fill="#F2F2F2"/>
<path opacity="0.2" d="M87.3424 112.844H77.8877V125.572H87.3424V112.844Z" fill="#F2F2F2"/>
<path d="M100.266 112.844H90.8115V125.572H100.266V112.844Z" fill="#F2F2F2"/>
<path opacity="0.7" d="M113.187 112.844H103.732V125.572H113.187V112.844Z" fill="#F2F2F2"/>
<path opacity="0.7" d="M126.111 112.844H116.656V125.572H126.111V112.844Z" fill="#F2F2F2"/>
<path opacity="0.2" d="M139.03 112.844H129.576V125.572H139.03V112.844Z" fill="#F2F2F2"/>
<path opacity="0.2" d="M151.954 112.844H142.5V125.572H151.954V112.844Z" fill="#F2F2F2"/>
<path opacity="0.4" d="M164.878 112.844H155.423V125.572H164.878V112.844Z" fill="#F2F2F2"/>
<path opacity="0.4" d="M177.799 112.844H168.344V125.572H177.799V112.844Z" fill="#F2F2F2"/>
<path d="M190.722 112.844H181.268V125.572H190.722V112.844Z" fill="#F2F2F2"/>
<path opacity="0.2" d="M203.642 112.844H194.188V125.572H203.642V112.844Z" fill="#F2F2F2"/>
<path opacity="0.4" d="M216.566 112.844H207.111V125.572H216.566V112.844Z" fill="#F2F2F2"/>
<path opacity="0.4" d="M229.49 112.844H220.035V125.572H229.49V112.844Z" fill="#F2F2F2"/>
<path opacity="0.4" d="M242.41 112.844H232.956V125.572H242.41V112.844Z" fill="#F2F2F2"/>
<path opacity="0.4" d="M255.334 112.844H245.879V125.572H255.334V112.844Z" fill="#F2F2F2"/>
<path opacity="0.2" d="M268.258 112.844H258.803V125.572H268.258V112.844Z" fill="#F2F2F2"/>
<path opacity="0.2" d="M281.178 112.844H271.723V125.572H281.178V112.844Z" fill="#F2F2F2"/>
<path opacity="0.2" d="M294.102 112.844H284.647V125.572H294.102V112.844Z" fill="#F2F2F2"/>
<path opacity="0.2" d="M307.022 112.844H297.567V125.572H307.022V112.844Z" fill="#F2F2F2"/>
<path opacity="0.7" d="M319.946 112.844H310.491V125.572H319.946V112.844Z" fill="#F2F2F2"/>
<path opacity="0.7" d="M332.87 112.844H323.415V125.572H332.87V112.844Z" fill="#F2F2F2"/>
<path opacity="0.4" d="M345.79 112.844H336.335V125.572H345.79V112.844Z" fill="#F2F2F2"/>
<path opacity="0.2" d="M358.714 112.844H349.259V125.572H358.714V112.844Z" fill="#F2F2F2"/>
<path d="M371.634 112.844H362.179V125.572H371.634V112.844Z" fill="#F2F2F2"/>
<path opacity="0.2" d="M48.5749 128.97H39.1201V141.697H48.5749V128.97Z" fill="#F2F2F2"/>
<path opacity="0.2" d="M61.4987 128.97H52.0439V141.697H61.4987V128.97Z" fill="#F2F2F2"/>
<path opacity="0.4" d="M74.4186 128.97H64.9639V141.697H74.4186V128.97Z" fill="#F2F2F2"/>
<path opacity="0.2" d="M87.3424 128.97H77.8877V141.697H87.3424V128.97Z" fill="#F2F2F2"/>
<path opacity="0.2" d="M100.266 128.97H90.8115V141.697H100.266V128.97Z" fill="#F2F2F2"/>
<path opacity="0.7" d="M113.187 128.97H103.732V141.697H113.187V128.97Z" fill="#F2F2F2"/>
<path opacity="0.7" d="M126.111 128.97H116.656V141.697H126.111V128.97Z" fill="#F2F2F2"/>
<path opacity="0.2" d="M139.03 128.97H129.576V141.697H139.03V128.97Z" fill="#F2F2F2"/>
<path opacity="0.2" d="M151.954 128.97H142.5V141.697H151.954V128.97Z" fill="#F2F2F2"/>
<path opacity="0.4" d="M164.878 128.97H155.423V141.697H164.878V128.97Z" fill="#F2F2F2"/>
<path d="M177.799 128.97H168.344V141.697H177.799V128.97Z" fill="#F2F2F2"/>
<path opacity="0.2" d="M190.722 128.97H181.268V141.697H190.722V128.97Z" fill="#F2F2F2"/>
<path d="M203.642 128.97H194.188V141.697H203.642V128.97Z" fill="#F2F2F2"/>
<path d="M216.566 128.97H207.111V141.697H216.566V128.97Z" fill="#F2F2F2"/>
<path d="M229.49 128.97H220.035V141.697H229.49V128.97Z" fill="#F2F2F2"/>
<path opacity="0.2" d="M242.41 128.97H232.956V141.697H242.41V128.97Z" fill="#F2F2F2"/>
<path d="M255.334 128.97H245.879V141.697H255.334V128.97Z" fill="#F2F2F2"/>
<path opacity="0.2" d="M268.258 128.97H258.803V141.697H268.258V128.97Z" fill="#F2F2F2"/>
<path opacity="0.2" d="M281.178 128.97H271.723V141.697H281.178V128.97Z" fill="#F2F2F2"/>
<path opacity="0.2" d="M294.102 128.97H284.647V141.697H294.102V128.97Z" fill="#F2F2F2"/>
<path opacity="0.2" d="M307.022 128.97H297.567V141.697H307.022V128.97Z" fill="#F2F2F2"/>
<path opacity="0.2" d="M319.946 128.97H310.491V141.697H319.946V128.97Z" fill="#F2F2F2"/>
<path opacity="0.7" d="M332.87 128.97H323.415V141.697H332.87V128.97Z" fill="#F2F2F2"/>
<path opacity="0.2" d="M345.79 128.97H336.335V141.697H345.79V128.97Z" fill="#F2F2F2"/>
<path opacity="0.2" d="M358.714 128.97H349.259V141.697H358.714V128.97Z" fill="#F2F2F2"/>
<path d="M371.634 128.97H362.179V141.697H371.634V128.97Z" fill="#F2F2F2"/>
<path opacity="0.2" d="M48.5749 145.09H39.1201V157.818H48.5749V145.09Z" fill="#F2F2F2"/>
<path opacity="0.2" d="M61.4987 145.09H52.0439V157.818H61.4987V145.09Z" fill="#F2F2F2"/>
<path opacity="0.2" d="M74.4186 145.09H64.9639V157.818H74.4186V145.09Z" fill="#F2F2F2"/>
<path opacity="0.4" d="M87.3424 145.09H77.8877V157.818H87.3424V145.09Z" fill="#F2F2F2"/>
<path opacity="0.2" d="M100.266 145.09H90.8115V157.818H100.266V145.09Z" fill="#F2F2F2"/>
<path opacity="0.2" d="M113.187 145.09H103.732V157.818H113.187V145.09Z" fill="#F2F2F2"/>
<path opacity="0.7" d="M126.111 145.09H116.656V157.818H126.111V145.09Z" fill="#F2F2F2"/>
<path opacity="0.2" d="M139.03 145.09H129.576V157.818H139.03V145.09Z" fill="#F2F2F2"/>
<path opacity="0.2" d="M151.954 145.09H142.5V157.818H151.954V145.09Z" fill="#F2F2F2"/>
<path opacity="0.2" d="M164.878 145.09H155.423V157.818H164.878V145.09Z" fill="#F2F2F2"/>
<path d="M177.799 145.09H168.344V157.818H177.799V145.09Z" fill="#F2F2F2"/>
<path opacity="0.2" d="M190.722 145.09H181.268V157.818H190.722V145.09Z" fill="#F2F2F2"/>
<path d="M203.642 145.09H194.188V157.818H203.642V145.09Z" fill="#F2F2F2"/>
<path d="M216.566 145.09H207.111V157.818H216.566V145.09Z" fill="#F2F2F2"/>
<path opacity="0.2" d="M229.49 145.09H220.035V157.818H229.49V145.09Z" fill="#F2F2F2"/>
<path opacity="0.2" d="M242.41 145.09H232.956V157.818H242.41V145.09Z" fill="#F2F2F2"/>
<path opacity="0.2" d="M255.334 145.09H245.879V157.818H255.334V145.09Z" fill="#F2F2F2"/>
<path opacity="0.2" d="M268.258 145.09H258.803V157.818H268.258V145.09Z" fill="#F2F2F2"/>
<path opacity="0.2" d="M281.178 145.09H271.723V157.818H281.178V145.09Z" fill="#F2F2F2"/>
<path opacity="0.2" d="M294.102 145.09H284.647V157.818H294.102V145.09Z" fill="#F2F2F2"/>
<path opacity="0.2" d="M307.022 145.09H297.567V157.818H307.022V145.09Z" fill="#F2F2F2"/>
<path opacity="0.2" d="M319.946 145.09H310.491V157.818H319.946V145.09Z" fill="#F2F2F2"/>
<path opacity="0.2" d="M332.87 145.09H323.415V157.818H332.87V145.09Z" fill="#F2F2F2"/>
<path opacity="0.2" d="M345.79 145.09H336.335V157.818H345.79V145.09Z" fill="#F2F2F2"/>
<path opacity="0.4" d="M358.714 145.09H349.259V157.818H358.714V145.09Z" fill="#F2F2F2"/>
<path d="M371.634 145.09H362.179V157.818H371.634V145.09Z" fill="#F2F2F2"/>
<path opacity="0.7" d="M48.5749 161.216H39.1201V173.943H48.5749V161.216Z" fill="#F2F2F2"/>
<path opacity="0.7" d="M61.4987 161.216H52.0439V173.943H61.4987V161.216Z" fill="#F2F2F2"/>
<path opacity="0.7" d="M74.4186 161.216H64.9639V173.943H74.4186V161.216Z" fill="#F2F2F2"/>
<path opacity="0.7" d="M87.3424 161.216H77.8877V173.943H87.3424V161.216Z" fill="#F2F2F2"/>
<path opacity="0.7" d="M100.266 161.216H90.8115V173.943H100.266V161.216Z" fill="#F2F2F2"/>
<path opacity="0.2" d="M113.187 161.216H103.732V173.943H113.187V161.216Z" fill="#F2F2F2"/>
<path opacity="0.2" d="M126.111 161.216H116.656V173.943H126.111V161.216Z" fill="#F2F2F2"/>
<path opacity="0.2" d="M139.03 161.216H129.576V173.943H139.03V161.216Z" fill="#F2F2F2"/>
<path opacity="0.2" d="M151.954 161.216H142.5V173.943H151.954V161.216Z" fill="#F2F2F2"/>
<path opacity="0.2" d="M164.878 161.216H155.423V173.943H164.878V161.216Z" fill="#F2F2F2"/>
<path opacity="0.2" d="M177.799 161.216H168.344V173.943H177.799V161.216Z" fill="#F2F2F2"/>
<path d="M190.722 161.216H181.268V173.943H190.722V161.216Z" fill="#F2F2F2"/>
<path opacity="0.2" d="M203.642 161.216H194.188V173.943H203.642V161.216Z" fill="#F2F2F2"/>
<path opacity="0.2" d="M216.566 161.216H207.111V173.943H216.566V161.216Z" fill="#F2F2F2"/>
<path opacity="0.2" d="M229.49 161.216H220.035V173.943H229.49V161.216Z" fill="#F2F2F2"/>
<path d="M242.41 161.216H232.956V173.943H242.41V161.216Z" fill="#F2F2F2"/>
<path opacity="0.2" d="M255.334 161.216H245.879V173.943H255.334V161.216Z" fill="#F2F2F2"/>
<path opacity="0.2" d="M268.258 161.216H258.803V173.943H268.258V161.216Z" fill="#F2F2F2"/>
<path opacity="0.2" d="M281.178 161.216H271.723V173.943H281.178V161.216Z" fill="#F2F2F2"/>
<path opacity="0.2" d="M294.102 161.216H284.647V173.943H294.102V161.216Z" fill="#F2F2F2"/>
<path opacity="0.2" d="M307.022 161.216H297.567V173.943H307.022V161.216Z" fill="#F2F2F2"/>
<path opacity="0.2" d="M319.946 161.216H310.491V173.943H319.946V161.216Z" fill="#F2F2F2"/>
<path opacity="0.2" d="M332.87 161.216H323.415V173.943H332.87V161.216Z" fill="#F2F2F2"/>
<path opacity="0.2" d="M345.79 161.216H336.335V173.943H345.79V161.216Z" fill="#F2F2F2"/>
<path opacity="0.2" d="M358.714 161.216H349.259V173.943H358.714V161.216Z" fill="#F2F2F2"/>
<path d="M371.634 161.216H362.179V173.943H371.634V161.216Z" fill="#F2F2F2"/>
<path d="M272.235 208.04C279.372 208.04 285.159 200.251 285.159 190.642C285.159 181.034 279.372 173.245 272.235 173.245C265.097 173.245 259.311 181.034 259.311 190.642C259.311 200.251 265.097 208.04 272.235 208.04Z" fill="#767D9F"/>
<path d="M271.564 168.51C272.854 176.087 273.948 183.721 274.848 191.411C275.118 193.696 275.359 196.106 274.744 198.266C274.229 200.067 273.18 201.474 272.357 203.051C271.534 204.628 270.912 206.648 271.412 208.454C271.912 210.26 273.373 211.248 274.766 211.757C278.754 213.204 283.005 212.151 286.975 210.585C288.772 209.962 290.495 209.001 292.093 207.731C293.776 206.294 295.155 204.298 296.422 202.243C302.208 192.798 305.995 181.462 309.561 170.196C307.27 170.477 304.962 170.02 302.828 168.862C300.695 167.705 298.796 165.881 297.289 163.541C295.829 161.231 294.758 158.012 295.581 155.188C293.168 156.97 290.303 157.089 287.705 158.307C286.094 159.135 284.543 160.162 283.072 161.375C281.298 162.756 279.534 164.163 277.779 165.596C275.774 167.223 273.895 168.67 271.564 168.51Z" fill="#C19A8A"/>
<path d="M298.594 181.572C296.329 187.504 293.383 193.207 289.176 196.739C284.97 200.272 279.306 201.23 275.092 197.737C273.017 196.031 271.445 193.437 269.633 191.251C267.821 189.066 265.556 187.195 263.121 187.479C260.438 187.794 258.336 190.613 256.539 193.312C253.811 197.413 251.176 201.689 249.245 206.543C245.538 215.873 244.66 226.78 244.823 237.357C244.986 247.935 246.124 258.457 246.15 269.035C246.187 282.047 244.549 294.954 242.892 307.772C258.125 305.247 273.376 310.765 288.643 312.856C298.412 314.208 308.256 314.178 318.078 314.143C319.805 314.143 321.643 314.083 323.081 312.796C323.96 311.933 324.671 310.796 325.153 309.483C326.51 306.115 327.055 302.273 327.433 298.476C328.393 288.887 328.422 279.178 328.448 269.499C328.515 246.049 328.578 222.514 326.365 199.249C325.82 193.526 325.124 187.774 323.493 182.42C321.862 177.067 319.201 172.142 315.48 169.273C313.089 167.427 307.548 164.214 304.732 166.075C301.57 168.151 300.11 177.6 298.594 181.572Z" fill="#767D9F"/>
<path d="M299.721 247.79C299.146 233.321 296.807 217.879 301.785 205.037C303.008 201.883 298.62 197.947 299.976 194.893C301.632 191.171 302.887 187.151 303.705 182.954C303.986 181.512 304.213 179.985 303.946 178.538C303.453 175.899 301.514 174.327 299.869 172.721C298.053 170.945 297.119 165.531 296.533 162.603C295.948 159.674 301.192 163.201 303.301 162.159C306.229 160.717 309.95 161.625 312.87 163.087C314.501 163.895 316.273 163.965 318.011 164.025C321.387 164.144 324.775 164.259 328.126 163.7C329.63 163.446 331.139 163.062 332.651 163.176C336.509 163.471 339.863 167.023 342.146 171.224C344.429 175.425 345.882 180.32 347.754 184.87C349.314 188.662 351.175 192.244 352.505 196.191C353.684 199.683 354.429 203.435 355.167 207.167L357.068 216.742C357.401 218.111 357.558 219.547 357.535 220.987C357.439 222.519 356.934 223.946 356.423 225.308C354.489 230.357 352.17 235.12 349.503 239.523C345.504 246.124 340.649 252.076 338.273 259.979C337.347 263.057 336.832 266.33 336.361 269.593C334.463 282.644 333.114 295.828 332.321 309.084C327.99 306.386 323.451 304.343 318.786 302.992C316.46 302.322 314.109 301.822 311.744 301.495C309.672 301.206 307 301.754 305.028 300.996C301.729 299.734 301.366 292.225 300.866 288.293C300.065 282.032 299.906 275.66 299.876 269.334C299.839 262.139 300.006 254.96 299.721 247.79Z" fill="#F2F2F2"/>
<path d="M227.281 220.733C228.841 232.707 230.561 244.717 233.952 255.968C233.867 256.077 233.782 256.177 233.696 256.277C233.396 256.621 233.085 256.945 232.759 257.275C231.999 257.993 231.165 258.602 230.535 259.54C230.296 259.899 230.108 260.313 229.979 260.762C229.863 261.113 229.802 261.493 229.802 261.877C229.802 262.262 229.863 262.642 229.979 262.992C228.211 264.045 226.158 263.721 224.175 263.621C222.466 263.536 220.81 263.621 219.438 264.883C217.533 266.65 216.959 270.042 216.651 273.126C216.538 274.25 216.44 275.376 216.358 276.504C216.279 277.551 216.215 278.602 216.166 279.657C215.998 283.145 215.974 286.643 216.095 290.134C216.115 290.773 216.141 291.412 216.173 292.05C210.117 291.856 204.598 287.605 199.376 283.474C198.183 282.531 196.952 281.538 196.178 279.981C195.464 278.452 195.162 276.64 195.322 274.847C195.322 274.593 195.355 274.348 195.381 274.089C195.547 272.608 195.831 271.156 196.23 269.758C197.863 263.803 200.272 258.287 203.342 253.468C204.669 251.382 206.162 249.342 206.781 246.722C207.052 245.58 207.152 244.367 207.426 243.23C208.657 238.3 213.097 235.97 214.616 231.186C214.987 230.043 215.158 228.791 215.617 227.693C216.031 226.781 216.565 225.978 217.192 225.323C217.463 225.019 217.745 224.724 218.023 224.43C220.627 221.683 223.136 218.781 225.55 215.724C226 215.155 226.444 214.58 226.884 213.997C226.826 216.256 226.959 218.515 227.281 220.733Z" fill="#F2F2F2"/>
<path d="M264.629 185.319C264.095 186.077 263.517 186.791 262.95 187.499L262.798 187.684L262.198 188.432C261.108 189.698 260.165 191.177 259.4 192.818L259.337 192.958C257.446 197.513 258.147 203.121 258.673 208.295C259.326 214.742 259.62 221.246 259.552 227.753C259.455 236.734 258.669 245.655 258.655 254.625C258.655 256.661 258.688 258.692 258.755 260.727C258.862 264.035 259.047 267.338 259.27 270.641C259.511 274.263 259.8 277.881 260.07 281.498C260.285 284.297 260.489 287.091 260.66 289.885C260.745 291.332 260.827 292.774 260.893 294.221C260.971 295.917 261.034 297.618 261.071 299.315C261.097 300.392 261.112 301.465 261.112 302.543C261.112 303.156 261.112 303.765 261.112 304.374C261.112 305.541 261.088 306.705 261.041 307.866C260.992 309.36 260.917 310.857 260.815 312.357C260.701 313.988 260.497 315.769 259.644 316.917C259.592 316.987 259.537 317.052 259.481 317.116L258.28 316.917C250.002 315.583 241.645 315.382 233.337 316.318C233.519 314.632 233.685 312.95 233.848 311.259C233.923 310.461 233.997 309.657 234.067 308.854C234.149 307.936 234.226 307.018 234.301 306.1C234.386 305.102 234.464 304.104 234.538 303.107C234.731 300.535 234.9 297.963 235.046 295.388C235.261 291.633 235.424 287.871 235.535 284.102C235.589 282.303 235.631 280.502 235.661 278.699C235.703 276.464 235.723 274.227 235.72 271.988C235.72 269.813 235.707 267.634 235.679 265.452C235.679 264.734 235.657 264.015 235.613 263.302C235.581 262.659 235.515 262.021 235.416 261.391C235.141 259.938 234.769 258.522 234.304 257.16C234.223 256.901 234.145 256.661 234.067 256.387C234.023 256.252 233.982 256.112 233.941 255.977C236.076 253.418 237.595 249.99 239.056 246.618C241.424 241.184 243.848 235.511 244.245 229.235C244.641 222.958 242.325 215.908 237.87 213.992C236.658 213.494 235.375 213.354 234.126 213.059C232.948 212.78 230.491 212.146 229.127 211.009C228.385 212.033 227.644 213.039 226.903 214.027C226.948 212.52 227.221 211.041 227.707 209.682L228.233 209.717C228.19 209.557 228.17 209.388 228.174 209.218C228.174 208.684 228.448 208.08 229.034 207.412C230.78 205.416 233.526 204.972 234.627 202.273C235.086 201.15 235.164 199.813 235.535 198.635C236.598 195.278 239.652 194.04 241.491 191.356C243.329 188.672 243.789 184.87 245.275 181.876C246.385 179.69 247.925 177.963 249.722 176.887C249.871 176.792 250.023 176.697 250.175 176.613C253.251 174.841 256.905 174.437 260.093 174.447C261.331 174.447 264.54 174.497 266.112 175.34C266.367 175.463 266.6 175.655 266.797 175.904C268.473 178.359 265.867 183.543 264.629 185.319Z" fill="#F2F2F2"/>
<path d="M227.833 209.332C230.696 208.172 233.702 207.789 236.676 208.207C239.65 208.624 242.533 209.832 245.157 211.762C247.825 213.758 250.219 216.542 251.687 220.134C253.892 225.523 253.796 232.019 253.64 238.171C253.562 241.249 253.462 244.437 252.454 247.201C251.287 250.399 249.085 252.595 246.839 254.391C245.432 255.599 243.891 256.497 242.273 257.05C239.782 257.779 237.195 257.16 234.686 256.551C231.958 255.873 229.031 255.054 227.137 252.32C226.025 250.734 225.417 248.673 224.816 246.657C223.954 243.747 223.089 240.84 222.222 237.936C220.721 232.892 220.213 228.696 222.196 223.781C223.097 221.541 224.197 219.446 225.087 217.191C225.532 216.043 227.125 209.627 227.833 209.332Z" fill="#F2F2F2"/>
<path d="M383.601 295.583V310.501C375.999 314.752 367.843 316.923 359.61 316.887H259.655C259.604 316.957 259.548 317.022 259.492 317.087L258.292 316.887H80.4895C65.5717 316.887 51.7472 311.469 40.4097 302.238V279.462L125.921 266.176H125.988L175.786 271.853L188.673 273.35L195.366 274.114L209.22 275.695L216.347 276.508L226.725 277.696L228.185 277.861L235.665 278.714L245.812 279.836L260.082 281.463L283.869 284.182L300.603 286.093L328.081 289.231L333.307 289.825L333.87 289.89L334.359 289.945L341.261 290.733L348.836 291.601L349.715 291.701L383.601 295.583Z" fill="#504F60"/>
<path d="M283.161 295.034L175.997 270.412L171.842 298.696L220.966 306.614L236.091 309.164L277.698 298.132L283.161 295.034Z" fill="#9C9CA1"/>
<path d="M227.689 307.747L281.378 294.161C281.647 294.091 281.924 294.103 282.188 294.195C282.453 294.287 282.7 294.456 282.91 294.691C283.121 294.926 283.29 295.221 283.406 295.555C283.521 295.888 283.581 296.252 283.58 296.62C283.581 297.204 283.43 297.77 283.153 298.22C282.876 298.669 282.491 298.974 282.064 299.08L229.631 312.297L227.689 307.747Z" fill="#9C9CA1"/>
<path d="M250.979 265.023C252.651 264.814 254.344 264.459 255.849 263.461C257.702 262.219 259.144 260.079 260.86 258.502C264.633 255.01 269.681 254.541 274.006 256.546C278.332 258.552 281.941 262.848 284.469 267.977C286.148 271.394 287.408 275.755 286.222 279.527C285.815 280.68 285.302 281.76 284.695 282.74L281.604 288.178C281.017 289.322 280.31 290.345 279.506 291.217C278.35 292.35 276.912 292.814 275.496 293.093C271.734 293.831 267.906 293.412 264.114 293.752C257.602 294.335 251.242 297.159 244.715 297.064C240.965 297.01 237.262 295.992 233.597 294.974L217.374 290.484C214.55 289.705 211.359 288.568 210.028 285.12C209.432 283.568 209.32 281.772 209.25 280.026C209.057 275.216 209.25 269.868 211.726 266.4C214.053 263.147 217.734 262.119 220.513 259.714C223.916 256.766 225.039 257.719 228.626 259.934C235.626 264.201 243.327 265.954 250.979 265.023Z" fill="#C19A8A"/>
<path opacity="0.05" d="M250.979 265.023C252.651 264.814 254.344 264.459 255.849 263.461C257.702 262.219 259.144 260.079 260.86 258.502C264.633 255.01 269.681 254.541 274.006 256.546C278.332 258.552 281.941 262.848 284.469 267.977C286.148 271.394 287.408 275.755 286.222 279.527C285.815 280.68 285.302 281.76 284.695 282.74L281.604 288.178C281.017 289.322 280.31 290.345 279.506 291.217C278.35 292.35 276.912 292.814 275.496 293.093C271.734 293.831 267.906 293.412 264.114 293.752C257.602 294.335 251.242 297.159 244.715 297.064C240.965 297.01 237.262 295.992 233.597 294.974L217.374 290.484C214.55 289.705 211.359 288.568 210.028 285.12C209.432 283.568 209.32 281.772 209.25 280.026C209.057 275.216 209.25 269.868 211.726 266.4C214.053 263.147 217.734 262.119 220.513 259.714C223.916 256.766 225.039 257.719 228.626 259.934C235.626 264.201 243.327 265.954 250.979 265.023Z" fill="black"/>
<path d="M316.124 258.183C311.573 260.553 306.996 262.933 302.229 264.345C294.239 266.714 285.877 266.34 277.95 269.049C273.761 270.486 269.599 272.801 265.296 272.332C263.373 272.123 261.516 271.335 259.644 270.736C249.129 267.243 237.177 268.376 228.637 277.357C225.717 280.425 223.326 284.252 221.158 288.333C220.694 289.215 220.38 290.223 220.24 291.287C220.099 292.35 220.134 293.443 220.344 294.486C220.553 295.529 220.931 296.497 221.45 297.32C221.97 298.144 222.618 298.803 223.348 299.25C226.669 301.306 230.227 302.583 233.867 303.027C238.733 303.605 243.622 302.677 248.462 301.749C255.645 300.377 262.832 299 269.996 297.459C272.568 296.905 275.14 296.331 277.727 295.892C296.344 292.724 315.298 296.575 333.963 293.931C335.849 293.662 337.769 293.312 339.485 292.23C343.829 289.486 345.979 282.251 345.082 275.895C344.185 269.538 340.723 264.255 336.557 261.012C333.066 258.283 329.3 257.18 325.412 256.022C321.802 254.89 319.601 256.387 316.124 258.183Z" fill="#C19A8A"/>
<path opacity="0.1" d="M356.053 220.184C358.106 223.806 358.543 228.666 358.321 233.201C358.098 237.737 357.298 242.222 357.179 246.777C357.016 253.024 358.136 259.25 357.946 265.477C357.813 269.833 357.046 274.104 356.138 278.285C355.067 283.219 353.517 288.523 350.134 290.893C345.642 294.041 336.22 292.27 331.495 294.734C331.925 291.127 336.046 285.903 336.476 282.296C336.772 279.801 337.073 277.237 336.754 274.737C336.346 271.549 334.956 268.72 333.307 266.365C330.683 262.618 327.258 259.799 323.496 258.881C319.735 257.963 310.524 258.717 307.515 261.915C307.144 258.612 314.038 255.429 316.462 254.715C317.67 254.351 319.056 254.556 320.024 253.523C321.877 251.567 320.531 247.67 320.62 244.542C320.691 242.047 321.773 239.762 321.992 237.268C322.362 233.276 320.428 229.21 321.187 225.293C321.469 223.846 322.095 222.574 322.529 221.197C323.849 216.981 323.27 212.171 322.566 207.691C322.129 204.877 321.703 201.704 322.866 199.304C323.945 197.064 327.006 205.042 328.967 204.672C335.442 203.45 341.301 196.989 346.531 202.278C349.196 204.972 349.544 207.766 350.608 211.613C351.642 215.275 354.322 217.151 356.053 220.184Z" fill="black"/>
<path d="M357.164 220.184C359.218 223.806 359.655 228.666 359.433 233.201C359.21 237.737 358.41 242.222 358.291 246.777C358.128 253.024 359.247 259.25 359.058 265.477C358.925 269.833 358.158 274.104 357.25 278.285C356.178 283.219 354.629 288.523 351.245 290.893C346.753 294.041 337.332 292.27 332.606 294.734C333.036 291.127 337.158 285.903 337.588 282.296C337.884 279.801 338.184 277.237 337.866 274.737C337.458 271.549 336.068 268.72 334.419 266.365C331.795 262.618 328.37 259.799 324.608 258.881C320.846 257.963 311.636 258.717 308.627 261.915C308.256 258.612 315.15 255.429 317.574 254.715C318.782 254.351 320.168 254.556 321.135 253.523C322.989 251.567 321.643 247.67 321.732 244.542C321.803 242.047 322.885 239.762 323.103 237.268C323.474 233.276 321.539 229.21 322.299 225.293C322.581 223.846 323.207 222.574 323.641 221.197C324.96 216.981 324.382 212.171 323.678 207.691C323.241 204.877 322.814 201.704 323.978 199.304C325.057 197.064 327.166 196.216 329.126 195.841C335.691 194.646 342.342 196.956 347.658 202.278C350.323 204.972 350.671 207.766 351.735 211.613C352.754 215.275 355.433 217.151 357.164 220.184Z" fill="#F2F2F2"/>
<path d="M111.93 196.545L132.081 296.8C132.329 298.028 132.848 299.126 133.57 299.947C134.293 300.768 135.184 301.273 136.125 301.395L226.825 313.125C227.564 313.221 228.31 313.077 228.999 312.705C229.689 312.334 230.302 311.745 230.788 310.989C231.273 310.232 231.617 309.33 231.791 308.358C231.964 307.386 231.962 306.372 231.784 305.402L209.717 184.471C209.454 183.033 208.822 181.768 207.931 180.899C207.041 180.03 205.951 179.615 204.854 179.726L116.055 188.667C115.373 188.738 114.712 189.011 114.117 189.466C113.523 189.921 113.01 190.547 112.616 191.3C112.222 192.052 111.957 192.912 111.838 193.819C111.719 194.726 111.751 195.656 111.93 196.545Z" fill="#9C9CA1"/>
<path d="M291.726 216.108C297.233 216.108 301.696 210.021 301.696 202.512C301.696 195.003 297.233 188.916 291.726 188.916C286.22 188.916 281.756 195.003 281.756 202.512C281.756 210.021 286.22 216.108 291.726 216.108Z" fill="#F2F2F2"/>
<path d="M299.913 177.71C299.913 177.71 302.015 186.122 295.814 189.66L295.021 191.526L298.905 196.684C298.905 196.684 303.694 184.925 303.175 180.749C303.175 180.749 302.434 176.508 299.913 177.71Z" fill="#F2F2F2"/>
<path d="M292.871 216.108C298.181 216.108 302.486 210.313 302.486 203.166C302.486 196.018 298.181 190.223 292.871 190.223C287.562 190.223 283.257 196.018 283.257 203.166C283.257 210.313 287.562 216.108 292.871 216.108Z" fill="#F2F2F2"/>
<path d="M303.223 182.66L301.696 179.267L299.472 178.843C299.947 167.672 297.793 164.344 297.793 164.344L297.293 164.279L295.114 163.995L291.015 158.267V156.64C296.774 157.563 299.958 161.246 301.678 165.561C304.717 173.135 303.223 182.66 303.223 182.66Z" fill="#F2F2F2"/>
<path opacity="0.1" d="M297.312 162.223V164.279L295.132 163.995L291.033 158.267C291.033 158.267 297.375 160.178 297.312 162.223Z" fill="black" stroke="#F2F2F2" stroke-miterlimit="10"/>
<path opacity="0.1" d="M303.223 182.66L301.696 179.267V165.581C304.716 173.135 303.223 182.66 303.223 182.66Z" fill="black" stroke="#F2F2F2" stroke-miterlimit="10"/>
<path d="M275.106 208.486C277.664 206.498 277.554 199.794 274.86 193.514C272.166 187.233 267.909 183.753 265.351 185.741C262.793 187.729 262.903 194.432 265.597 200.713C268.29 206.994 272.548 210.474 275.106 208.486Z" fill="#F2F2F2"/>
<path d="M271.671 196.016C274.366 202.298 277.672 206.494 275.114 208.489C272.557 210.485 265.107 209.487 262.413 203.201C259.718 196.914 262.165 188.233 264.722 186.237C267.279 184.241 268.973 189.719 271.671 196.016Z" fill="#F2F2F2"/>
<path opacity="0.1" d="M295.662 150.763C295.662 170.835 285.459 190.178 270.548 190.178C263.387 190.178 256.52 186.349 251.456 179.533C246.393 172.716 243.548 163.471 243.548 153.831C243.548 144.192 246.393 134.946 251.456 128.13C256.52 121.314 263.387 117.484 270.548 117.484C285.459 117.504 295.662 130.686 295.662 150.763Z" fill="black"/>
<path d="M270.548 189.201C285.46 189.201 297.549 172.927 297.549 152.853C297.549 132.779 285.46 116.506 270.548 116.506C255.636 116.506 243.548 132.779 243.548 152.853C243.548 172.927 255.636 189.201 270.548 189.201Z" fill="#C19A8A"/>
<path d="M268.176 136.748C271.39 138.34 273.291 142.81 276.175 145.3C280.251 148.792 285.559 147.889 290.214 146.163C292.808 145.21 295.521 144.047 298.075 145.105C298.451 145.329 298.865 145.408 299.272 145.335C299.828 145.12 300.102 144.292 300.284 143.553C303.442 130.881 302.022 116.526 297.256 104.801C296.025 101.778 294.55 98.8542 292.519 96.7537C290.918 95.1022 289.035 94.0195 287.138 93.0965C283.67 91.4199 280.083 90.2278 276.434 89.5391C275.79 89.3815 275.131 89.3529 274.481 89.4543C273.588 89.6489 272.787 90.2975 271.99 90.8763C268.577 93.3391 264.793 94.7229 260.923 94.9226C255.734 95.187 249.804 93.5406 245.805 98.021C240.987 103.394 242.188 113.877 239.063 121.171C236.995 125.996 233.007 129.499 232.351 134.992C232.181 136.671 232.26 138.379 232.585 140.016C234.112 148.468 240.19 155.014 246.669 155.169C247.664 155.271 248.66 154.996 249.545 154.375C250.125 153.843 250.637 153.187 251.061 152.434C255.304 145.669 260.16 132.776 268.176 136.748Z" fill="#444053"/>
<path opacity="0.1" d="M300.284 139.876C300.102 140.615 299.828 141.443 299.272 141.657C298.865 141.731 298.451 141.652 298.075 141.428C295.521 140.37 292.793 141.533 290.218 142.486C285.559 144.212 280.24 145.135 276.178 141.623C273.291 139.128 271.393 134.638 268.176 133.071C260.16 129.079 255.304 141.992 251.049 148.757C250.625 149.51 250.113 150.165 249.534 150.698C248.649 151.319 247.652 151.594 246.658 151.491C240.201 151.337 234.119 144.791 232.574 136.339C232.488 135.84 232.414 135.341 232.359 134.842C232.359 134.887 232.359 134.927 232.34 134.972C232.169 136.651 232.249 138.359 232.574 139.996C234.101 148.448 240.183 154.994 246.658 155.149C247.652 155.251 248.649 154.976 249.534 154.355C250.113 153.823 250.625 153.167 251.049 152.414C255.304 145.649 260.16 132.757 268.176 136.728C271.393 138.32 273.291 142.79 276.178 145.28C280.255 148.772 285.559 147.869 290.218 146.143C292.812 145.19 295.521 144.027 298.075 145.085C298.451 145.309 298.865 145.388 299.272 145.315C299.828 145.1 300.102 144.272 300.284 143.533C301.558 138.348 302.12 132.894 301.944 127.438C301.835 131.67 301.276 135.858 300.284 139.876Z" fill="black"/>
</g>
<defs>
<clipPath id="clip0">
<rect width="424" height="308" fill="white" transform="translate(0 9.08655)"/>
</clipPath>
</defs>
</svg>
