<svg width="1200" height="630" viewBox="0 0 1200 630" fill="none" xmlns="http://www.w3.org/2000/svg">
<rect width="1200" height="630" fill="url(#paint0_radial)"/>
<path d="M522.705 258.127L522.247 255.111C521.988 253.406 520.874 252.071 519.45 251.761L516.932 251.213C506.228 248.883 495.149 249.936 484.893 254.26C471.55 259.886 462.799 269.144 455.089 280.617L451.017 278.943C444.411 276.227 437.098 278.036 431.93 283.662L419.07 297.664C412.862 304.422 416.679 316.826 425.067 317.139L436.443 317.564C435.857 321.794 436.976 326.206 439.603 329.352L457.459 350.737C459.998 353.777 463.642 355.251 467.303 354.524L467.658 368.146C467.919 378.221 478.295 382.739 483.919 375.329L495.61 359.927C500.308 353.738 501.818 344.979 499.551 337.068L498.153 332.191C507.482 323.199 515.345 312.878 520.161 296.497C523.771 284.214 524.651 270.946 522.705 258.127ZM423.744 303.822L436.604 289.821C439.895 286.238 444.554 285.086 448.761 286.815L450.638 287.587C446.582 294.274 442.767 301.556 439.346 309.345L425.283 308.82C423.121 308.739 422.143 305.566 423.744 303.822ZM492.977 339.77C494.421 344.808 493.46 350.387 490.468 354.328L478.776 369.73C477.322 371.647 474.671 370.478 474.603 367.887L474.165 351.045C480.488 347.062 486.562 342.541 492.333 337.521L492.977 339.77ZM497.183 322.336C488.13 331.637 478.097 339.549 467.363 345.854C465.696 346.832 463.691 346.43 462.373 344.852C462.395 344.852 462.535 345.046 444.517 323.466C443.2 321.889 442.863 319.487 443.681 317.491C444.571 315.317 445.503 313.169 446.469 311.045L465.318 333.619C466.675 335.244 468.875 335.244 470.232 333.619C471.589 331.994 471.589 329.359 470.232 327.734L450.067 303.584C454.124 295.651 458.591 288.351 463.603 281.38C476.177 263.933 495.951 255.113 515.84 259.434C519.35 282.605 512.592 306.463 497.183 322.336ZM477.432 280.064C468.015 291.342 474.743 310.677 488.023 310.677C501.292 310.677 508.043 291.355 498.614 280.064C492.774 273.07 483.272 273.07 477.432 280.064ZM493.7 299.547C490.57 303.295 485.477 303.295 482.346 299.547C479.216 295.798 479.216 289.698 482.346 285.949C485.477 282.201 490.57 282.201 493.7 285.949C496.83 289.698 496.83 295.798 493.7 299.547ZM421.336 347.328C419.979 345.703 419.979 343.068 421.336 341.443L425.836 336.054C427.193 334.429 429.393 334.429 430.75 336.054C432.107 337.679 432.107 340.314 430.75 341.939L426.25 347.328C424.893 348.953 422.693 348.953 421.336 347.328ZM452.036 361.547C453.393 363.172 453.393 365.807 452.036 367.432L447.537 372.821C446.858 373.634 445.969 374.04 445.08 374.04C442.012 374.04 440.427 369.565 442.622 366.936L447.122 361.547C448.479 359.922 450.679 359.922 452.036 361.547ZM444.446 350.822L429.168 369.12C427.81 370.745 425.61 370.745 424.254 369.12C422.896 367.495 422.896 364.86 424.254 363.235L439.532 344.937C440.889 343.312 443.089 343.312 444.446 344.937C445.803 346.562 445.803 349.197 444.446 350.822Z" fill="white"/>
<path d="M616.5 293.5H589.5V356H575V293.5H548V286H616.5V293.5ZM657.477 350.5C662.01 350.5 666.343 349.733 670.477 348.2C674.677 346.6 678.677 344.033 682.477 340.5L687.477 346.5C683.677 350.033 679.077 352.833 673.677 354.9C668.277 356.967 662.543 358 656.477 358C650.21 358 644.543 357.2 639.477 355.6C634.477 354 630.177 351.633 626.577 348.5C623.043 345.367 620.31 341.5 618.377 336.9C616.443 332.3 615.477 327 615.477 321C615.477 315 616.41 309.7 618.277 305.1C620.21 300.5 622.91 296.633 626.377 293.5C629.91 290.367 634.143 288 639.077 286.4C644.01 284.8 649.477 284 655.477 284C661.543 284 667.277 285.033 672.677 287.1C678.077 289.167 682.677 291.967 686.477 295.5L681.477 301.5C677.677 297.967 673.677 295.433 669.477 293.9C665.343 292.3 661.01 291.5 656.477 291.5C652.877 291.5 649.51 292.1 646.377 293.3C643.243 294.433 640.543 296.2 638.277 298.6C636.01 301 634.21 304.067 632.877 307.8C631.61 311.467 630.977 315.867 630.977 321C630.977 326.133 631.61 330.567 632.877 334.3C634.21 337.967 636.043 341 638.377 343.4C640.777 345.8 643.577 347.6 646.777 348.8C650.043 349.933 653.61 350.5 657.477 350.5ZM761.48 337.5C761.48 340.367 760.88 343.067 759.68 345.6C758.48 348.067 756.514 350.233 753.78 352.1C751.114 353.9 747.614 355.333 743.28 356.4C739.014 357.467 733.747 358 727.48 358C723.947 358 720.48 357.733 717.08 357.2C713.747 356.667 710.547 355.9 707.48 354.9C704.48 353.9 701.68 352.7 699.08 351.3C696.547 349.833 694.347 348.233 692.48 346.5L697.48 340.5C701.28 343.767 705.714 346.267 710.78 348C715.847 349.667 721.414 350.5 727.48 350.5C734.214 350.5 738.98 349.567 741.78 347.7C744.58 345.833 745.98 343.267 745.98 340C745.98 337.467 744.88 335.333 742.68 333.6C740.48 331.867 736.747 330.167 731.48 328.5L712.48 322.5C706.214 320.5 701.48 317.967 698.28 314.9C695.08 311.767 693.48 307.8 693.48 303C693.48 300.533 694.047 298.167 695.18 295.9C696.38 293.567 698.214 291.533 700.68 289.8C703.147 288 706.28 286.6 710.08 285.6C713.947 284.533 718.58 284 723.98 284C727.247 284 730.48 284.267 733.68 284.8C736.947 285.333 740.047 286.1 742.98 287.1C745.98 288.1 748.747 289.333 751.28 290.8C753.88 292.2 756.114 293.767 757.98 295.5L752.98 301.5C749.18 298.233 744.914 295.767 740.18 294.1C735.447 292.367 730.047 291.5 723.98 291.5C718.98 291.5 715.214 292.367 712.68 294.1C710.214 295.833 708.98 297.967 708.98 300.5C708.98 301.9 709.214 303.133 709.68 304.2C710.147 305.2 710.914 306.167 711.98 307.1C713.114 307.967 714.58 308.8 716.38 309.6C718.18 310.333 720.414 311.133 723.08 312L741.98 318C748.047 319.933 752.814 322.467 756.28 325.6C759.747 328.733 761.48 332.7 761.48 337.5Z" fill="white"/>
<defs>
<radialGradient id="paint0_radial" cx="0" cy="0" r="1" gradientUnits="userSpaceOnUse" gradientTransform="translate(1200 315) rotate(-180) scale(1492.5 2842.86)">
<stop stop-color="#302CAF"/>
<stop offset="1" stop-color="#9800F9"/>
</radialGradient>
</defs>
</svg>
