<svg width="1079" height="293" viewBox="0 0 1079 293" fill="none" xmlns="http://www.w3.org/2000/svg">
<rect width="1079" height="293" fill="url(#paint0_radial)"/>
<path d="M459.677 96.6857L459.254 93.8341C459.014 92.2209 457.984 90.9591 456.667 90.6656L454.338 90.1473C444.44 87.9436 434.194 88.9396 424.71 93.0292C412.371 98.35 404.278 107.106 397.148 117.956L393.382 116.373C387.274 113.804 380.51 115.515 375.731 120.836L363.839 134.078C358.098 140.469 361.628 152.2 369.385 152.496L379.905 152.897C379.363 156.898 380.398 161.071 382.828 164.046L399.34 184.271C401.688 187.146 405.058 188.54 408.443 187.852L408.771 200.735C409.013 210.263 418.608 214.536 423.809 207.528L434.621 192.962C438.965 187.109 440.362 178.825 438.265 171.343L436.972 166.731C445.599 158.227 452.871 148.466 457.324 132.974C460.663 121.358 461.477 108.809 459.677 96.6857ZM368.161 139.902L380.054 126.66C383.098 123.272 387.405 122.182 391.296 123.818L393.032 124.548C389.282 130.872 385.753 137.758 382.59 145.125L369.585 144.628C367.585 144.552 366.68 141.551 368.161 139.902ZM432.186 173.899C433.521 178.664 432.632 183.939 429.865 187.667L419.053 202.233C417.708 204.046 415.257 202.94 415.194 200.49L414.789 184.562C420.637 180.795 426.254 176.52 431.59 171.772L432.186 173.899ZM436.075 157.411C427.703 166.207 418.425 173.69 408.499 179.652C406.958 180.578 405.103 180.197 403.885 178.705C403.905 178.705 404.034 178.888 387.372 158.48C386.153 156.988 385.842 154.716 386.598 152.829C387.421 150.773 388.283 148.741 389.177 146.732L406.608 168.081C407.863 169.619 409.897 169.618 411.152 168.081C412.407 166.545 412.407 164.053 411.152 162.516L392.504 139.676C396.255 132.174 400.387 125.27 405.021 118.678C416.65 102.177 434.936 93.8355 453.328 97.9225C456.575 119.836 450.325 142.399 436.075 157.411ZM417.811 117.433C409.102 128.099 415.323 146.385 427.605 146.385C439.875 146.385 446.118 128.111 437.399 117.433C431.998 110.818 423.211 110.818 417.811 117.433ZM432.854 135.858C429.96 139.403 425.25 139.403 422.355 135.858C419.46 132.313 419.46 126.544 422.355 122.999C425.25 119.453 429.96 119.453 432.854 122.999C435.749 126.544 435.749 132.313 432.854 135.858ZM365.935 181.047C364.68 179.51 364.68 177.018 365.935 175.481L370.096 170.385C371.351 168.848 373.385 168.848 374.64 170.385C375.895 171.921 375.895 174.413 374.64 175.95L370.479 181.047C369.224 182.584 367.189 182.584 365.935 181.047ZM394.325 194.494C395.58 196.031 395.58 198.523 394.325 200.06L390.164 205.156C389.536 205.925 388.714 206.309 387.892 206.309C385.055 206.309 383.589 202.077 385.62 199.591L389.78 194.494C391.036 192.957 393.07 192.957 394.325 194.494ZM387.306 184.351L373.177 201.656C371.922 203.193 369.887 203.193 368.633 201.656C367.378 200.119 367.378 197.627 368.633 196.09L382.762 178.785C384.017 177.248 386.051 177.248 387.306 178.785C388.561 180.322 388.561 182.814 387.306 184.351Z" fill="white"/>
<path d="M546.5 120.5H519.5V183H505V120.5H478V113H546.5V120.5ZM587.477 177.5C592.01 177.5 596.343 176.733 600.477 175.2C604.677 173.6 608.677 171.033 612.477 167.5L617.477 173.5C613.677 177.033 609.077 179.833 603.677 181.9C598.277 183.967 592.543 185 586.477 185C580.21 185 574.543 184.2 569.477 182.6C564.477 181 560.177 178.633 556.577 175.5C553.043 172.367 550.31 168.5 548.377 163.9C546.443 159.3 545.477 154 545.477 148C545.477 142 546.41 136.7 548.277 132.1C550.21 127.5 552.91 123.633 556.377 120.5C559.91 117.367 564.143 115 569.077 113.4C574.01 111.8 579.477 111 585.477 111C591.543 111 597.277 112.033 602.677 114.1C608.077 116.167 612.677 118.967 616.477 122.5L611.477 128.5C607.677 124.967 603.677 122.433 599.477 120.9C595.343 119.3 591.01 118.5 586.477 118.5C582.877 118.5 579.51 119.1 576.377 120.3C573.243 121.433 570.543 123.2 568.277 125.6C566.01 128 564.21 131.067 562.877 134.8C561.61 138.467 560.977 142.867 560.977 148C560.977 153.133 561.61 157.567 562.877 161.3C564.21 164.967 566.043 168 568.377 170.4C570.777 172.8 573.577 174.6 576.777 175.8C580.043 176.933 583.61 177.5 587.477 177.5ZM691.48 164.5C691.48 167.367 690.88 170.067 689.68 172.6C688.48 175.067 686.514 177.233 683.78 179.1C681.114 180.9 677.614 182.333 673.28 183.4C669.014 184.467 663.747 185 657.48 185C653.947 185 650.48 184.733 647.08 184.2C643.747 183.667 640.547 182.9 637.48 181.9C634.48 180.9 631.68 179.7 629.08 178.3C626.547 176.833 624.347 175.233 622.48 173.5L627.48 167.5C631.28 170.767 635.714 173.267 640.78 175C645.847 176.667 651.414 177.5 657.48 177.5C664.214 177.5 668.98 176.567 671.78 174.7C674.58 172.833 675.98 170.267 675.98 167C675.98 164.467 674.88 162.333 672.68 160.6C670.48 158.867 666.747 157.167 661.48 155.5L642.48 149.5C636.214 147.5 631.48 144.967 628.28 141.9C625.08 138.767 623.48 134.8 623.48 130C623.48 127.533 624.047 125.167 625.18 122.9C626.38 120.567 628.214 118.533 630.68 116.8C633.147 115 636.28 113.6 640.08 112.6C643.947 111.533 648.58 111 653.98 111C657.247 111 660.48 111.267 663.68 111.8C666.947 112.333 670.047 113.1 672.98 114.1C675.98 115.1 678.747 116.333 681.28 117.8C683.88 119.2 686.114 120.767 687.98 122.5L682.98 128.5C679.18 125.233 674.914 122.767 670.18 121.1C665.447 119.367 660.047 118.5 653.98 118.5C648.98 118.5 645.214 119.367 642.68 121.1C640.214 122.833 638.98 124.967 638.98 127.5C638.98 128.9 639.214 130.133 639.68 131.2C640.147 132.2 640.914 133.167 641.98 134.1C643.114 134.967 644.58 135.8 646.38 136.6C648.18 137.333 650.414 138.133 653.08 139L671.98 145C678.047 146.933 682.814 149.467 686.28 152.6C689.747 155.733 691.48 159.7 691.48 164.5Z" fill="white"/>
<defs>
<radialGradient id="paint0_radial" cx="0" cy="0" r="1" gradientUnits="userSpaceOnUse" gradientTransform="translate(1079 146.5) rotate(-180) scale(1342.01 1322.15)">
<stop stop-color="#302CAF"/>
<stop offset="1" stop-color="#9800F9"/>
</radialGradient>
</defs>
</svg>
